<svg id="Layer_1" data-name="Layer 1" xmlns="http://www.w3.org/2000/svg" viewBox="0 0 460 471.07"><defs><style>.cls-1{fill:none;}.cls-1,.cls-2{stroke:#000;stroke-miterlimit:10;stroke-width:13px;}.cls-2{fill:#fff;}</style></defs><title>s-svg</title><path class="cls-1" d="M473.5,250a223.47,223.47,0,0,1-10.05,66.46c-15.33,49.28-31.49,49.5-45.95,81-5.89,38.84,12,79.76,3,86-11.87,8.25-67.36-34.14-78-30l-5,2c-4.77,1.87-8.45,3.27-9.91,3.83,0,0-6,2.53-11.13,4.12A223.47,223.47,0,0,1,250,473.5C126.56,473.5,26.5,373.44,26.5,250S126.56,26.5,250,26.5,473.5,126.56,473.5,250Z" transform="translate(-20 -20)"/><path class="cls-2" d="M239.8,126.74C260.47,103.5,291.7,89.52,323,92.27l1.17.91c-15,11.37-22.82,32.06-16.56,50.2,4.21,12.7,11.7,24.07,19.67,34.72,8.51,12.1,18,23.49,26,36a174.57,174.57,0,0,1,16.88,37.22c4.75,17,6.82,34.81,4.56,52.34a108.6,108.6,0,0,1-12.61,38.59c-16.88,28.66-45.64,49.15-77.07,59.09-44.51,14.35-95.49,5.39-132.57-23.09-10.36-8.74-21.32-17.72-28-29.7,5.2.79,9.6,3.86,14.54,5.46,22.73,7.53,49.36,3.41,67.83-12.15a71.34,71.34,0,0,0,25.4-41.48c3.12-15,.79-30.58-3.5-45.11-3.75-14-9.05-27.49-11.83-41.7a112.54,112.54,0,0,1,.26-40.22,104.92,104.92,0,0,1,22.69-46.61Z" transform="translate(-20 -20)"/><path class="cls-1" d="M336.5,469.5" transform="translate(-20 -20)"/></svg>